<?xml version="1.0" encoding="UTF-8"?>
<svg version="1.1" xmlns="http://www.w3.org/2000/svg" width="261" height="263">
<path d="M0 0 C3.62881662 0.00771191 7.25761298 0.00051959 10.88643074 -0.0041585 C16.97497396 -0.00958308 23.06340723 -0.00251198 29.15193367 0.01186323 C36.14401009 0.02818339 43.13582385 0.02289252 50.12789392 0.00638402 C56.181978 -0.00732582 62.23598402 -0.00910461 68.29007864 -0.00129998 C71.88366644 0.00332488 75.47713171 0.00414755 79.07071114 -0.00590944 C117.59212064 -0.09898647 117.59212064 -0.09898647 130.47957039 7.15297651 C131.13626717 7.50223188 131.79296394 7.85148726 132.46956062 8.21132612 C137.73919737 11.08881228 142.52443905 14.3646454 146.97957039 18.40297651 C147.58929695 18.94438276 148.19902351 19.48578901 148.82722664 20.04360151 C161.39343684 31.86412451 168.82959058 48.13050755 169.37397957 65.35701704 C169.39761989 67.93702122 169.40523953 70.51720637 169.39949226 73.09731245 C169.40685128 74.53123836 169.41544276 75.96515838 169.42515755 77.39907026 C169.44719213 81.25886842 169.45031332 85.11845198 169.44841003 88.97830439 C169.44828947 92.21828523 169.45688862 95.45822202 169.46518755 98.69819045 C169.48435749 106.35274603 169.48732928 114.00719259 169.48054695 121.66176558 C169.4739142 129.51670507 169.49675426 137.37117404 169.53386068 145.22601819 C169.56471282 152.00694838 169.57590093 158.78772843 169.57202387 165.56872725 C169.56997194 169.60232349 169.57519087 173.63555343 169.59991646 177.66908216 C169.78093808 209.68702635 169.78093808 209.68702635 163.97957039 222.40297651 C163.5701722 223.37047834 163.160774 224.33798018 162.7389698 225.33480024 C155.23878722 242.42993795 140.02726261 253.63623922 123.22957039 260.53188276 C117.18531382 262.64533058 111.26177374 263.52392573 104.85421944 263.55014753 C103.64759651 263.55730284 102.44097359 263.56445814 101.19778633 263.57183027 C99.2317067 263.57586363 99.2317067 263.57586363 97.22590828 263.57997847 C95.8208061 263.58625052 94.41570555 263.59289797 93.01060677 263.59989119 C88.40782496 263.62085516 83.80504314 263.63129007 79.20222664 263.64125776 C77.61081552 263.64530893 76.01940456 263.64942596 74.42799377 263.65360785 C66.94487391 263.67264692 59.4617638 263.68687763 51.9786244 263.69521981 C43.37573098 263.70497152 34.77309626 263.73124214 26.17029387 263.77172071 C19.49907862 263.80201954 12.82793694 263.81670186 6.1566543 263.82000083 C2.18283192 263.82233667 -1.79071373 263.83110295 -5.76446152 263.856462 C-9.51156246 263.87998875 -13.25820931 263.88387904 -17.00536537 263.87370062 C-19.0099131 263.87298038 -21.01443906 263.89189936 -23.01888847 263.91176558 C-42.7702094 263.800443 -60.19896295 256.51408905 -74.13761711 242.55141401 C-81.0611279 235.21876602 -85.83359556 226.92302051 -89.02042961 217.40297651 C-89.41953922 216.22854254 -89.41953922 216.22854254 -89.82671165 215.03038263 C-92.21649202 207.24225766 -92.46005809 199.82415252 -92.44035149 191.73036909 C-92.44770812 190.28673863 -92.45629893 188.84311401 -92.46601677 187.39949751 C-92.48807868 183.5086499 -92.49117106 179.61801504 -92.48926926 175.72711349 C-92.4891488 172.46232964 -92.49774392 169.19758963 -92.50604677 165.93281811 C-92.52522733 158.21930872 -92.52818492 150.50590751 -92.52140617 142.79238081 C-92.51477577 134.87554749 -92.53760155 126.95918129 -92.57471991 119.04244262 C-92.60557136 112.2105778 -92.61676013 105.37886201 -92.61288309 98.54692906 C-92.61083074 94.48201993 -92.61605662 90.41747423 -92.64077568 86.35263205 C-92.66329661 82.52326891 -92.66095906 78.69465611 -92.64084816 74.8652873 C-92.63589792 72.81924459 -92.65527405 70.77318622 -92.67585564 68.72724104 C-92.49858583 48.80310279 -84.37989687 32.60529137 -70.41007805 18.75063276 C-65.36270024 13.85577586 -59.76503641 10.53719432 -53.58292961 7.21547651 C-52.69879387 6.71503828 -52.69879387 6.71503828 -51.7967968 6.20449018 C-36.22899059 -1.74967328 -16.93544017 -0.04739554 0 0 Z " fill="#F46193" transform="translate(92.02042961120605,-0.40297651290893555)"/>
<path d="M0 0 C3.0776356 0.24501001 4.6248837 0.65471925 6.91845703 2.76586914 C7.52544434 3.51473389 8.13243164 4.26359863 8.7578125 5.03515625 C16.86876827 15.12607632 16.86876827 15.12607632 28.1953125 20.3671875 C34.47874304 20.71147686 40.36468525 20.67062293 45.40234375 16.55078125 C46.68818359 15.28814453 46.68818359 15.28814453 48 14 C49.1446875 12.88625 49.1446875 12.88625 50.3125 11.75 C51.6428125 10.38875 51.6428125 10.38875 53 9 C54.60281237 7.39448018 56.20707959 5.79041194 57.8125 4.1875 C58.99779297 3.00220703 58.99779297 3.00220703 60.20703125 1.79296875 C60.79871094 1.20128906 61.39039063 0.60960938 62 0 C66.875 1.875 66.875 1.875 68 3 C68.40625 5.19921875 68.40625 5.19921875 68 8 C66.21336981 10.1491769 64.53604497 11.93903847 62.5 13.8125 C61.97535156 14.31458984 61.45070313 14.81667969 60.91015625 15.33398438 C59.61777468 16.56762133 58.31030401 17.78541625 57 19 C57.89195068 18.99887207 58.78390137 18.99774414 59.70288086 18.99658203 C63.05298552 19.00658299 66.40067318 19.04339388 69.75024414 19.09765625 C71.19220819 19.11568281 72.63434305 19.12340922 74.07641602 19.12011719 C83.07462186 19.10764134 90.07593588 19.5641383 97 26 C100.14289476 29.22146713 101.48798992 31.51991179 102 36 C102.804375 35.979375 103.60875 35.95875 104.4375 35.9375 C107 36 107 36 108 37 C108.21159105 38.74478075 108.35907521 40.49738279 108.48071289 42.25073242 C108.56072037 43.3724736 108.64072784 44.49421478 108.72315979 45.64994812 C108.80549362 46.87276993 108.88782745 48.09559174 108.97265625 49.35546875 C109.06002548 50.60499832 109.14739471 51.85452789 109.2374115 53.141922 C109.42192952 55.79411652 109.60469029 58.44636093 109.78442383 61.09887695 C110.01410973 64.48737672 110.24959487 67.8754402 110.48720646 71.26339245 C110.71392753 74.50225222 110.93700672 77.74136123 111.16015625 80.98046875 C111.24451431 82.1931694 111.32887238 83.40587006 111.41578674 84.65531921 C111.49264206 85.7928212 111.56949738 86.93032318 111.64868164 88.10229492 C111.71672501 89.09855392 111.78476837 90.09481293 111.85487366 91.1212616 C112.00432822 94.0858549 112.02476482 97.032163 112 100 C109.69 100 107.38 100 105 100 C104.85304687 100.90621094 104.70609375 101.81242187 104.5546875 102.74609375 C102.96428207 111.38364046 101.08701557 118.33038058 94.4765625 124.3984375 C90.68356728 127.00727812 87.29593144 127.18878112 82.75 127.375 C79.68358273 127.45535179 79.68358273 127.45535179 77 128 C74.88166255 130.81830246 74.88166255 130.81830246 74 134 C71.64045506 135.80898445 70.46618189 136.01165455 67.5 135.9375 C64.17789059 134.69170897 62.92663138 132.92562542 61 130 C61 129.34 61 128.68 61 128 C42.52 128 24.04 128 5 128 C4.34 129.65 3.68 131.3 3 133 C1 135 1 135 -2.9375 135.3125 C-5.57745097 135.24063201 -6.73053107 135.16841808 -9 133.75 C-10 132 -10 132 -10 128 C-10.90621094 128.08121094 -11.81242187 128.16242188 -12.74609375 128.24609375 C-23.94024374 128.82653116 -23.94024374 128.82653116 -29.125 124.875 C-34.46154899 119.94513968 -36.78459487 116.29243077 -38 109 C-42.29 109 -46.58 109 -51 109 C-51.15033691 107.50110229 -51.15033691 107.50110229 -51.30371094 105.97192383 C-53.02670644 88.8704525 -54.77072539 71.77797761 -57.125 54.75 C-57.28323242 53.59991455 -57.44146484 52.4498291 -57.60449219 51.26489258 C-58.52345018 44.79317429 -59.63426424 38.3925766 -61 32 C-59.25447527 31.15733289 -57.5033792 30.32619962 -55.75 29.5 C-54.77546875 29.0359375 -53.8009375 28.571875 -52.796875 28.09375 C-50 27 -50 27 -46 27 C-45.71153564 32.4950159 -45.42685621 37.99021086 -45.14550781 43.4855957 C-45.04951361 45.35055687 -44.9525299 47.2154674 -44.85449219 49.08032227 C-43.81071037 68.96010558 -43.81071037 68.96010558 -44 78 C-42.35 78 -40.7 78 -39 78 C-39.03927612 76.21553467 -39.03927612 76.21553467 -39.0793457 74.39501953 C-39.17049989 69.94094988 -39.22748421 65.48696103 -39.2746582 61.03222656 C-39.29965487 59.11183768 -39.33366412 57.19154249 -39.37719727 55.27148438 C-39.84586917 34.05443176 -39.84586917 34.05443176 -34 27 C-28.16451642 21.63284186 -23.61974065 19.87679395 -15.70703125 19.68359375 C-15.00100266 19.66281265 -14.29497406 19.64203156 -13.56755066 19.62062073 C-11.31596449 19.55532509 -9.06426338 19.49633353 -6.8125 19.4375 C-5.2844934 19.39429575 -3.75649836 19.35068084 -2.22851562 19.30664062 C1.51420562 19.19966426 5.2570423 19.09834078 9 19 C8.3800415 18.45730469 7.76008301 17.91460937 7.12133789 17.35546875 C6.30914795 16.64003906 5.49695801 15.92460938 4.66015625 15.1875 C3.85457275 14.47980469 3.04898926 13.77210937 2.21899414 13.04296875 C-0.13683105 10.8740233 -2.13090009 8.60048683 -4 6 C-1.125 1.125 -1.125 1.125 0 0 Z " fill="#F77BA5" transform="translate(98,64)"/>
<path d="M0 0 C0.93457031 0.01289062 1.86914062 0.02578125 2.83203125 0.0390625 C3.80011719 0.07257813 4.76820312 0.10609375 5.765625 0.140625 C7.24095703 0.16769531 7.24095703 0.16769531 8.74609375 0.1953125 C11.17026283 0.24238374 13.59244559 0.30811758 16.015625 0.390625 C17.90551879 5.26132687 18.4170697 9.61453838 18.640625 14.765625 C18.67929688 15.50167969 18.71796875 16.23773438 18.7578125 16.99609375 C18.85120498 18.79389906 18.9344621 20.59222608 19.015625 22.390625 C17.365625 22.720625 15.715625 23.050625 14.015625 23.390625 C14.015625 21.080625 14.015625 18.770625 14.015625 16.390625 C12.365625 16.390625 10.715625 16.390625 9.015625 16.390625 C9.015625 18.370625 9.015625 20.350625 9.015625 22.390625 C8.685625 22.390625 8.355625 22.390625 8.015625 22.390625 C8.015625 20.740625 8.015625 19.090625 8.015625 17.390625 C6.365625 17.390625 4.715625 17.390625 3.015625 17.390625 C3.304375 18.586875 3.593125 19.783125 3.890625 21.015625 C4.74589677 24.83780506 5.33314707 28.6312268 5.828125 32.515625 C6.87328978 40.27363675 8.58128227 47.85807318 10.33911133 55.48291016 C10.55462646 56.43343262 10.7701416 57.38395508 10.9921875 58.36328125 C11.28730225 59.63570679 11.28730225 59.63570679 11.58837891 60.93383789 C12.02912803 63.46827128 12.09074957 65.82348669 12.015625 68.390625 C14.655625 68.390625 17.295625 68.390625 20.015625 68.390625 C19.685625 67.400625 19.355625 66.410625 19.015625 65.390625 C18.72830211 63.03666957 18.48336785 60.677451 18.26171875 58.31640625 C18.16395897 57.29065742 18.16395897 57.29065742 18.06422424 56.2441864 C17.85721738 54.06413026 17.65511011 51.88365158 17.453125 49.703125 C17.31347393 48.22327679 17.17350374 46.74345865 17.03320312 45.26367188 C16.6903093 41.63966437 16.35180762 38.01526194 16.015625 34.390625 C18.490625 33.895625 18.490625 33.895625 21.015625 33.390625 C22.71229741 36.78396982 22.69371995 40.5864161 23.078125 44.328125 C23.16755371 45.18317627 23.25698242 46.03822754 23.34912109 46.91918945 C23.96214251 53.09085558 24.26655782 59.18700803 24.015625 65.390625 C26.655625 65.390625 29.295625 65.390625 32.015625 65.390625 C31.520625 61.430625 31.520625 61.430625 31.015625 57.390625 C34.015625 58.890625 34.015625 58.890625 37.015625 61.390625 C37.56974174 64.23726395 37.30864768 66.46039819 37.015625 69.390625 C39.985625 69.390625 42.955625 69.390625 46.015625 69.390625 C46.015625 66.090625 46.015625 62.790625 46.015625 59.390625 C49.94458895 59.390625 53.21455728 60.39362363 57.015625 61.390625 C57.510625 67.825625 57.510625 67.825625 58.015625 74.390625 C79.46770015 72.63078564 79.46770015 72.63078564 98.015625 62.390625 C100.15997259 59.56983204 100.15997259 59.56983204 100.640625 56.515625 C100.28505806 53.08890609 100.28505806 53.08890609 97.015625 50.765625 C87.51327526 45.53342532 75.69710813 43.94728171 65.015625 43.390625 C62.81723748 34.15467111 62.77909258 25.1234053 62.890625 15.703125 C62.90068208 14.2115946 62.90980308 12.72005758 62.91796875 11.22851562 C62.93974956 7.61574526 62.9741265 4.00322907 63.015625 0.390625 C68.21169486 0.29166674 73.40721498 0.21911507 78.60400391 0.17089844 C80.37135372 0.1507965 82.13863713 0.12351028 83.90576172 0.08886719 C86.44775785 0.04028491 88.98887396 0.01764274 91.53125 0 C92.71427704 -0.03096771 92.71427704 -0.03096771 93.92120361 -0.06256104 C97.50730239 -0.06402423 99.5875042 0.07565579 102.51708984 2.23095703 C104.51799075 5.11462751 104.48470389 7.03470614 104.390625 10.515625 C104.37773437 11.57007812 104.36484375 12.62453125 104.3515625 13.7109375 C104.015625 16.390625 104.015625 16.390625 102.015625 18.390625 C99.390625 18.015625 99.390625 18.015625 97.015625 17.390625 C97.510625 18.9375 97.510625 18.9375 98.015625 20.515625 C98.9871442 23.87489209 99.18679271 26.88168702 99.015625 30.390625 C100.665625 30.390625 102.315625 30.390625 104.015625 30.390625 C104.015625 31.710625 104.015625 33.030625 104.015625 34.390625 C102.695625 34.390625 101.375625 34.390625 100.015625 34.390625 C100.22203613 35.16011475 100.42844727 35.92960449 100.64111328 36.72241211 C102.76844575 45.17662646 103.63080132 53.25367155 103.890625 61.953125 C103.94992188 63.19642578 104.00921875 64.43972656 104.0703125 65.72070312 C104.1115625 66.91244141 104.1528125 68.10417969 104.1953125 69.33203125 C104.23382324 70.40138916 104.27233398 71.47074707 104.31201172 72.57250977 C103.96547922 75.86742294 103.27140438 77.00829622 101.015625 79.390625 C98.9838028 79.89119625 98.9838028 79.89119625 96.61291504 79.89183044 C95.26276054 79.90658165 95.26276054 79.90658165 93.8853302 79.92163086 C92.90030014 79.91196289 91.91527008 79.90229492 90.90039062 79.89233398 C89.86113937 79.89773697 88.82188812 79.90313995 87.75114441 79.90870667 C84.30776701 79.92123813 80.86521849 79.90467294 77.421875 79.88671875 C75.03438269 79.88687363 72.64689012 79.88836085 70.25939941 79.89112854 C65.25240991 79.89251452 60.24570617 79.87992084 55.23876953 79.85717773 C48.81229487 79.82879287 42.38629527 79.83152795 35.95978546 79.84426785 C31.02878748 79.85121414 26.0978998 79.8434477 21.16691589 79.83101082 C18.79697594 79.82648612 16.42702418 79.82616836 14.05708313 79.83007622 C10.74809386 79.83297809 7.43976529 79.81652986 4.13085938 79.79467773 C3.14582932 79.79917938 2.16079926 79.80368103 1.1459198 79.80831909 C-0.2042347 79.79346214 -0.2042347 79.79346214 -1.58166504 79.77830505 C-2.364058 79.77587516 -3.14645096 79.77344526 -3.9525528 79.77094173 C-6.5379905 79.28699918 -7.43425742 78.49036283 -8.984375 76.390625 C-9.171875 73.203125 -9.171875 73.203125 -8.984375 70.390625 C-8.09685547 69.93623047 -8.09685547 69.93623047 -7.19140625 69.47265625 C-2.46669604 66.96771201 1.66929323 64.67811258 5.015625 60.390625 C6.0424305 56.72346252 6.22369022 55.01482065 5.015625 51.390625 C2.89777387 50.27277387 2.89777387 50.27277387 0.015625 49.390625 C-2.984375 48.390625 -5.984375 47.390625 -8.984375 46.390625 C-9.08327533 40.48247157 -9.15585871 34.57480028 -9.20410156 28.66601562 C-9.22421305 26.65616462 -9.25150615 24.64637209 -9.28613281 22.63671875 C-9.33467134 19.74724904 -9.35734822 16.85855309 -9.375 13.96875 C-9.39564514 13.07069641 -9.41629028 12.17264282 -9.43756104 11.24737549 C-9.43977955 5.07503001 -9.43977955 5.07503001 -7.27148438 1.81640625 C-4.58773185 0.14335813 -3.14308053 -0.0766605 0 0 Z " fill="#F56295" transform="translate(83.984375,98.609375)"/>
<path d="M0 0 C0.28846436 5.4950159 0.57314379 10.99021086 0.85449219 16.4855957 C0.95048639 18.35055687 1.0474701 20.2154674 1.14550781 22.08032227 C2.18928963 41.96010558 2.18928963 41.96010558 2 51 C2.76723389 50.95875 3.53446777 50.9175 4.32495117 50.875 C15.6786714 50.35657453 27.24480052 53.07036895 37 59 C39 62 39 62 38.9375 64.875 C37.16340388 70.78865373 32.20486808 74.06634708 27 77 C17.98307232 80.63253372 9.86954183 82.04448629 0.22265625 82.015625 C-0.75823975 82.01336914 -1.73913574 82.01111328 -2.74975586 82.00878906 C-3.86362671 82.00443848 -3.86362671 82.00443848 -5 82 C-5.15033691 80.50110229 -5.15033691 80.50110229 -5.30371094 78.97192383 C-7.02670644 61.8704525 -8.77072539 44.77797761 -11.125 27.75 C-11.28323242 26.59991455 -11.44146484 25.4498291 -11.60449219 24.26489258 C-12.52345018 17.79317429 -13.63426424 11.3925766 -15 5 C-13.25447527 4.15733289 -11.5033792 3.32619962 -9.75 2.5 C-8.77546875 2.0359375 -7.8009375 1.571875 -6.796875 1.09375 C-4 0 -4 0 0 0 Z " fill="#FDE9EF" transform="translate(52,91)"/>
<path d="M0 0 C-0.00523682 0.6077124 -0.01047363 1.2154248 -0.01586914 1.84155273 C-0.13857159 18.33183028 0.33383043 34.58645723 2 51 C2.6084375 50.95359375 3.216875 50.9071875 3.84375 50.859375 C14.93790416 50.40255689 27.53709221 52.56611628 36.5390625 59.4296875 C38 61 38 61 38.875 64 C37.35668986 69.20563477 34.95894205 71.73008646 30.5234375 74.60546875 C19.47795308 80.63433828 7.49537078 82.70140335 -5 82 C-5.18628241 80.42646154 -5.37243227 78.85290733 -5.55810547 77.27929688 C-5.7323228 75.80396698 -5.90715787 74.32870994 -6.08251953 72.85351562 C-6.63006633 68.22484593 -7.15630835 63.59457804 -7.66015625 58.9609375 C-9.00847536 46.70033494 -10.59839672 34.52504206 -12.64208984 22.359375 C-13.61134411 16.58049784 -14.41033199 10.83049291 -15 5 C-13.25447527 4.15733289 -11.5033792 3.32619962 -9.75 2.5 C-8.77546875 2.0359375 -7.8009375 1.571875 -6.796875 1.09375 C-4 0 -4 0 0 0 Z " fill="#FDE7EF" transform="translate(147,91)"/>
<path d="M0 0 C7.59 0 15.18 0 23 0 C25.34111662 12.95417865 27.46450215 25.77138604 28.7734375 38.86376953 C29.30056383 43.8339801 29.98212629 48.78696172 30.6328125 53.7421875 C31 57 31 57 31 61 C26.69986566 61.19546065 24.99110319 60.9955516 21 59 C20.67 62.3 20.34 65.6 20 69 C17.03 69 14.06 69 11 69 C10.90234375 67.046875 10.8046875 65.09375 10.70703125 63.140625 C10.15421993 60.73878945 10.15421993 60.73878945 7.53125 59.31640625 C3.79398985 55.89635182 3.99800346 52.56951223 3.6875 47.6875 C3.61466797 46.85798828 3.54183594 46.02847656 3.46679688 45.17382812 C3.07434753 40.43827269 2.92948528 35.75012784 3 31 C5.97 31 8.94 31 12 31 C12 26.71 12 22.42 12 18 C10.35 18 8.7 18 7 18 C7 19.65 7 21.3 7 23 C6.67 22.01 6.34 21.02 6 20 C4.68 20 3.36 20 2 20 C1.34 13.4 0.68 6.8 0 0 Z " fill="#F66797" transform="translate(110,99)"/>
<path d="M0 0 C3.3 0 6.6 0 10 0 C10.33 6.27 10.66 12.54 11 19 C12.32 19 13.64 19 15 19 C15.33 18.34 15.66 17.68 16 17 C17.65 17 19.3 17 21 17 C21 21.29 21 25.58 21 30 C18.03 30 15.06 30 12 30 C12.09087891 30.8878418 12.18175781 31.77568359 12.27539062 32.69042969 C12.61244306 35.99267927 12.94769546 39.2951014 13.28173828 42.59765625 C13.42652729 44.0254637 13.57202796 45.45319917 13.71826172 46.88085938 C13.92864289 48.93601145 14.13644154 50.99141098 14.34375 53.046875 C14.53227539 54.90070801 14.53227539 54.90070801 14.72460938 56.79199219 C15 60 15 60 15 64 C12.36 64 9.72 64 7 64 C6.01 53.44 5.02 42.88 4 32 C2.68 32.66 1.36 33.32 0 34 C0.13631836 35.33961792 0.13631836 35.33961792 0.27539062 36.70629883 C0.61203611 40.02160947 0.94734098 43.33705003 1.28173828 46.65258789 C1.42670883 48.0872126 1.57221267 49.52178352 1.71826172 50.95629883 C1.92816334 53.01890356 2.13614287 55.08169446 2.34375 57.14453125 C2.46943359 58.38565674 2.59511719 59.62678223 2.72460938 60.90551758 C3 64 3 64 3 67 C0.36 67 -2.28 67 -5 67 C-14 26.70305677 -14 26.70305677 -14 16 C-12.7934375 16.0309375 -12.7934375 16.0309375 -11.5625 16.0625 C-9.06645115 16.29633621 -9.06645115 16.29633621 -8 15 C-6.33382885 14.95936168 -4.66611905 14.957279 -3 15 C-3 17.31 -3 19.62 -3 22 C-1.35 21.67 0.3 21.34 2 21 C1.855625 19.90300781 1.71125 18.80601563 1.5625 17.67578125 C1.37483474 16.22137548 1.18734394 14.76694719 1 13.3125 C0.90460938 12.59126953 0.80921875 11.87003906 0.7109375 11.12695312 C0.57558594 10.06831055 0.57558594 10.06831055 0.4375 8.98828125 C0.35371094 8.34415283 0.26992187 7.70002441 0.18359375 7.03637695 C-0.0270834 4.69959751 0 2.34625724 0 0 Z " fill="#FDE8EF" transform="translate(101,100)"/>
<path d="M0 0 C1.64574566 -0.02688151 3.29161413 -0.04634123 4.9375 -0.0625 C5.85402344 -0.07410156 6.77054688 -0.08570312 7.71484375 -0.09765625 C10 0 10 0 11 1 C11.21159105 2.74478075 11.35907521 4.49738279 11.48071289 6.25073242 C11.56072037 7.3724736 11.64072784 8.49421478 11.72315979 9.64994812 C11.80549362 10.87276993 11.88782745 12.09559174 11.97265625 13.35546875 C12.06002548 14.60499832 12.14739471 15.85452789 12.2374115 17.141922 C12.42192952 19.79411652 12.60469029 22.44636093 12.78442383 25.09887695 C13.01410973 28.48737672 13.24959487 31.8754402 13.48720646 35.26339245 C13.71392753 38.50225222 13.93700672 41.74136123 14.16015625 44.98046875 C14.24451431 46.1931694 14.32887238 47.40587006 14.41578674 48.65531921 C14.49264206 49.7928212 14.56949738 50.93032318 14.64868164 52.10229492 C14.71672501 53.09855392 14.78476837 54.09481293 14.85487366 55.1212616 C15.00432822 58.0858549 15.02476482 61.032163 15 64 C12.69 64 10.38 64 8 64 C7.92927277 63.42307907 7.85854553 62.84615814 7.78567505 62.25175476 C7.04306563 56.19950663 6.29597681 50.14782297 5.54638672 44.09643555 C5.26791388 41.84364514 4.99055 39.59071735 4.71435547 37.33764648 C4.31515516 34.08279488 3.911853 30.82847264 3.5078125 27.57421875 C3.3868924 26.58105148 3.26597229 25.58788422 3.14138794 24.56462097 C2.42397296 18.8230428 1.52145548 13.16183089 0.38449097 7.48762512 C-0.00753192 4.95126911 -0.06647493 2.56215162 0 0 Z " fill="#FDE6EE" transform="translate(195,100)"/>
<path d="M0 0 C3.63 0 7.26 0 11 0 C11.50909874 3.60308571 12.00745302 7.20714483 12.5 10.8125 C12.64308594 11.81732422 12.78617188 12.82214844 12.93359375 13.85742188 C13.84627462 20.61560643 14.18176284 27.18305219 14 34 C11.36 34 8.72 34 6 34 C5.1419191 29.64075122 4.28752041 25.28080184 3.43652344 20.92016602 C3.14651922 19.43689499 2.85551054 17.95381999 2.56347656 16.47094727 C2.14383813 14.33921256 1.72781954 12.20679854 1.3125 10.07421875 C1.06113281 8.79119873 0.80976563 7.50817871 0.55078125 6.1862793 C0 3 0 3 0 0 Z " fill="#FDE8F0" transform="translate(184,133)"/>
<path d="M0 0 C1.64574566 -0.02688151 3.29161413 -0.04634123 4.9375 -0.0625 C5.85402344 -0.07410156 6.77054687 -0.08570313 7.71484375 -0.09765625 C10 0 10 0 11 1 C11.30048754 3.17867615 11.53999819 5.3658143 11.75390625 7.5546875 C11.81907944 8.21203888 11.88425262 8.86939026 11.95140076 9.54666138 C12.08873903 10.94024668 12.22393643 12.33404436 12.35717773 13.72802734 C12.56101985 15.85952271 12.77112035 17.99032623 12.98242188 20.12109375 C14 30.50821992 14 30.50821992 14 34 C11.36 34 8.72 34 6 34 C5.13747081 30.12397123 4.28327549 26.24620606 3.43652344 22.36669922 C3.00628328 20.40366834 2.56959485 18.44205433 2.1328125 16.48046875 C1.86210938 15.23652344 1.59140625 13.99257812 1.3125 12.7109375 C1.06113281 11.56931152 0.80976562 10.42768555 0.55078125 9.25146484 C0.01632725 6.0963858 -0.10148401 3.19251777 0 0 Z " fill="#FDE7EE" transform="translate(90,133)"/>
<path d="M0 0 C9.86675685 0.64700045 19.3678065 2.87379712 29 5 C28.88590407 6.45922693 28.75834456 7.91740598 28.625 9.375 C28.55539063 10.18710938 28.48578125 10.99921875 28.4140625 11.8359375 C28 14 28 14 26 16 C23.49389648 15.85986328 23.49389648 15.85986328 20.37109375 15.3203125 C19.25412109 15.13339844 18.13714844 14.94648438 16.98632812 14.75390625 C15.2296582 14.44259766 15.2296582 14.44259766 13.4375 14.125 C11.12373615 13.73154592 8.80993608 13.33830478 6.49609375 12.9453125 C4.95199829 12.67485107 4.95199829 12.67485107 3.37670898 12.39892578 C1.23729192 11.97241127 1.23729192 11.97241127 0 12 C0 8.04 0 4.08 0 0 Z " fill="#F779A4" transform="translate(147,119)"/>
<path d="M0 0 C3.3 0 6.6 0 10 0 C10 11.22 10 22.44 10 34 C7.36 34 4.72 34 2 34 C0.71758315 22.61855043 -0.34176603 11.4681489 0 0 Z " fill="#FDE8EF" transform="translate(119,134)"/>
<path d="M0 0 C3.3 0 6.6 0 10 0 C10.33 11.22 10.66 22.44 11 34 C8.36 34 5.72 34 3 34 C2.48775274 30.39746678 1.99253625 26.79277663 1.5 23.1875 C1.35691406 22.18267578 1.21382812 21.17785156 1.06640625 20.14257812 C0.15093257 13.3637135 -0.13534267 6.84044411 0 0 Z " fill="#FCE6EE" transform="translate(213,134)"/>
<path d="M0 0 C1.2065625 0.0309375 1.2065625 0.0309375 2.4375 0.0625 C2.4375 2.3725 2.4375 4.6825 2.4375 7.0625 C4.0875 6.7325 5.7375 6.4025 7.4375 6.0625 C7.7675 4.7425 8.0975 3.4225 8.4375 2.0625 C8.7675 7.0125 9.0975 11.9625 9.4375 17.0625 C6.55334117 18.50457941 4.02028472 18.15644887 0.8125 18.125 C-0.37601563 18.11597656 -1.56453125 18.10695312 -2.7890625 18.09765625 C-3.70429687 18.08605469 -4.61953125 18.07445312 -5.5625 18.0625 C-5.8925 18.7225 -6.2225 19.3825 -6.5625 20.0625 C-7.2225 13.7925 -7.8825 7.5225 -8.5625 1.0625 C-6.9125 1.0625 -5.2625 1.0625 -3.5625 1.0625 C-2.5625 0.0625 -2.5625 0.0625 0 0 Z " fill="#F887AC" transform="translate(95.5625,114.9375)"/>
<path d="M0 0 C1.65 0 3.3 0 5 0 C5 4.29 5 8.58 5 13 C2.03 13 -0.94 13 -4 13 C-5.20272819 10.59454362 -5.10071472 9.05003047 -5.0625 6.375 C-5.05347656 5.55773437 -5.04445313 4.74046875 -5.03515625 3.8984375 C-5.02355469 3.27195312 -5.01195313 2.64546875 -5 2 C-3.68 2 -2.36 2 -1 2 C-0.67 1.34 -0.34 0.68 0 0 Z " fill="#F885AB" transform="translate(117,117)"/>
<path d="M0 0 C1.60433809 0.47859241 3.20846416 0.95789558 4.8125 1.4375 C6.15248047 1.83775391 6.15248047 1.83775391 7.51953125 2.24609375 C9.35473055 2.80387873 11.18033726 3.39344575 13 4 C11.58426179 7.39187279 9.95769034 9.09697541 7 11.25 C6.29875 11.77078125 5.5975 12.2915625 4.875 12.828125 C3 14 3 14 1 14 C-0.20568053 9.32798795 -0.09382426 4.78503708 0 0 Z " fill="#F46398" transform="translate(156,151)"/>
<path d="M0 0 C3.82303833 0.76460767 6.38393238 1.47614782 9.8125 3.0625 C10.99779297 3.60583984 10.99779297 3.60583984 12.20703125 4.16015625 C12.79871094 4.43730469 13.39039062 4.71445313 14 5 C10.32442148 9.00972202 6.81033104 11.45335415 2 14 C1.34 9.38 0.68 4.76 0 0 Z " fill="#F884AA" transform="translate(61,151)"/>
<path d="M0 0 C0.99 1.32 1.98 2.64 3 4 C6.7461898 8.95737112 6.7461898 8.95737112 12 12 C12 13.32 12 14.64 12 16 C7.69986566 16.19546065 5.99110319 15.9955516 2 14 C1.67 17.3 1.34 20.6 1 24 C0.67 24 0.34 24 0 24 C0 16.08 0 8.16 0 0 Z " fill="#F679A5" transform="translate(129,144)"/>
<path d="M0 0 C1.65 0 3.3 0 5 0 C5 4.29 5 8.58 5 13 C3.35 13 1.7 13 0 13 C0 8.71 0 4.42 0 0 Z " fill="#FCDBE8" transform="translate(218,117)"/>
<path d="M0 0 C1.65 0 3.3 0 5 0 C5 4.29 5 8.58 5 13 C3.35 13 1.7 13 0 13 C0 8.71 0 4.42 0 0 Z " fill="#FDDAE5" transform="translate(124,117)"/>
<path d="M0 0 C1.65 0 3.3 0 5 0 C5.33 4.29 5.66 8.58 6 13 C4.35 13 2.7 13 1 13 C0.67 8.71 0.34 4.42 0 0 Z " fill="#FDE7EE" transform="translate(93,115)"/>
<path d="M0 0 C2.475 0.495 2.475 0.495 5 1 C5 4.96 5 8.92 5 13 C3.68 13 2.36 13 1 13 C0.1276588 10.00519083 -0.10829766 7.36424089 -0.0625 4.25 C-0.05347656 3.45078125 -0.04445312 2.6515625 -0.03515625 1.828125 C-0.02355469 1.22484375 -0.01195312 0.6215625 0 0 Z " fill="#FDE7EF" transform="translate(188,115)"/>
<path d="M0 0 C1.65 0 3.3 0 5 0 C5 3.96 5 7.92 5 12 C3.68 12.33 2.36 12.66 1 13 C-0.10228696 8.59085217 -0.07654536 4.51617599 0 0 Z " fill="#FBD6E4" transform="translate(212,117)"/>
<path d="M0 0 C1.65 0 3.3 0 5 0 C5.8723412 2.99480917 6.10829766 5.63575911 6.0625 8.75 C6.05347656 9.54921875 6.04445312 10.3484375 6.03515625 11.171875 C6.01775391 12.07679688 6.01775391 12.07679688 6 13 C4.68 13 3.36 13 2 13 C1.34 8.71 0.68 4.42 0 0 Z " fill="#FDDEE9" transform="translate(181,116)"/>
<path d="M0 0 C1.65 0 3.3 0 5 0 C5.33 4.29 5.66 8.58 6 13 C4.68 13 3.36 13 2 13 C1.34 8.71 0.68 4.42 0 0 Z " fill="#FDE3EB" transform="translate(87,116)"/>
<path d="M0 0 C1.32 0 2.64 0 4 0 C4 4.29 4 8.58 4 13 C2.68 13 1.36 13 0 13 C0 8.71 0 4.42 0 0 Z " fill="#FDE6ED" transform="translate(118,117)"/>
<path d="M0 0 C2.0625 0.4375 2.0625 0.4375 4 1 C4 2.98 4 4.96 4 7 C2.0625 6.25 2.0625 6.25 0 5 C-0.8125 2.9375 -0.8125 2.9375 -1 1 C-0.67 0.67 -0.34 0.34 0 0 Z " fill="#F779A4" transform="translate(116,152)"/>
</svg>
